<svg width="256" height="256" viewBox="30 10 232 232" fill="none" xmlns="http://www.w3.org/2000/svg">
<!-- White body outline -->
<path d="M248.378 171.091C247.841 169.064 246.971 167.141 245.804 165.399C246.054 164.481 246.244 163.549 246.372 162.608C247.2 156.632 245.129 151.161 241.224 146.927C239.109 144.615 236.842 143.089 234.441 142.152C236.017 135.409 236.815 128.508 236.819 121.583C236.819 118.421 236.64 115.323 236.34 112.271C236.183 110.747 235.994 109.226 235.773 107.71C235.085 103.237 234.065 98.8214 232.721 94.5C231.84 91.6607 230.821 88.866 229.668 86.126C227.939 82.0684 225.92 78.1402 223.627 74.372C222.122 71.8656 220.484 69.4417 218.719 67.111C217.854 65.934 216.953 64.7848 216.015 63.665C213.237 60.2884 210.219 57.1177 206.982 54.178C205.908 53.1898 204.803 52.2357 203.668 51.317C202.551 50.3852 201.409 49.4832 200.244 48.612C197.899 46.8668 195.475 45.2294 192.981 43.705C179.2 35.335 163.039 30.536 145.766 30.536C95.4751 30.536 54.7141 71.298 54.7141 121.587C54.7128 128.599 55.5252 135.587 57.1351 142.411C54.9751 143.349 52.9041 144.81 50.9851 146.925C47.0811 151.156 45.0091 156.608 45.8381 162.583C45.9631 163.533 46.1531 164.473 46.4051 165.397C45.2388 167.14 44.3691 169.064 43.8311 171.091C42.6311 175.652 43.0261 179.765 44.5511 183.368C42.8941 188.079 43.3081 193.095 45.4671 197.456C47.0371 200.641 49.2841 203.104 52.0531 205.307C55.3461 207.924 59.4681 210.149 64.4411 212.282C70.3731 214.812 77.6131 217.189 80.9061 218.061C89.4121 220.264 97.5681 221.66 105.835 221.727C117.611 221.837 127.753 219.067 135.015 211.98C138.582 212.417 142.172 212.636 145.766 212.635C149.563 212.627 153.356 212.387 157.124 211.919C164.368 219.051 174.549 221.846 186.369 221.733C194.634 221.668 202.79 220.272 211.274 218.066C214.589 217.194 221.827 214.817 227.762 212.288C232.735 210.15 236.856 207.926 240.172 205.312C242.92 203.11 245.165 200.646 246.736 197.461C248.917 193.1 249.31 188.084 247.674 183.373C249.185 179.77 249.577 175.648 248.378 171.091Z" fill="white"/>
<!-- Orange body detail -->
<path d="M239.442 182.207C240.443 180.702 241.114 179.003 241.412 177.221C241.71 175.438 241.627 173.613 241.17 171.865C240.506 169.343 239.134 167.245 237.272 165.738C238.168 164.264 238.757 162.624 239.002 160.916C239.538 157.202 238.306 153.493 235.532 150.47C233.373 148.117 230.319 146.822 226.939 146.822C226.546 146.822 226.147 146.842 225.739 146.883C228.3 138.695 229.599 130.164 229.591 121.585C229.591 74.9139 191.754 37.075 145.081 37.075C98.408 37.075 60.567 74.9099 60.567 121.585C60.5589 130.142 61.8513 138.651 64.4 146.82H64.31C60.93 146.82 57.877 148.115 55.718 150.468C52.946 153.489 51.712 157.2 52.248 160.914C52.4927 162.622 53.0812 164.262 53.978 165.736C52.116 167.243 50.744 169.341 50.081 171.864C49.6232 173.612 49.5406 175.438 49.8388 177.221C50.137 179.003 50.8091 180.703 51.811 182.207C51.632 182.484 51.468 182.772 51.314 183.066C49.644 186.237 49.536 189.82 51.011 193.157C53.246 198.214 58.801 202.199 69.588 206.475C76.295 209.136 82.438 210.836 82.492 210.852C91.364 213.153 99.387 214.322 106.333 214.322C117.739 214.322 126.249 211.202 131.684 205.037C140.88 206.496 150.253 206.443 159.432 204.88C164.859 211.148 173.418 214.322 184.92 214.322C191.866 214.322 199.89 213.153 208.762 210.852C208.816 210.836 214.956 209.136 221.666 206.475C232.453 202.199 238.008 198.214 240.243 193.157C241.718 189.82 241.611 186.237 239.94 183.066C239.787 182.769 239.619 182.482 239.442 182.207Z" fill="#FF9D00"/>
<!-- Yellow body/face fill with hands -->
<path fill-rule="evenodd" clip-rule="evenodd" d="M220.867 122.075V121.585C220.867 79.731 186.949 45.802 145.092 45.802C103.237 45.802 69.3061 79.733 69.3061 121.585L69.3051 121.749C69.3041 121.858 69.3031 121.966 69.3051 122.075C69.3099 122.238 69.3116 122.401 69.3101 122.564L69.3161 122.924L69.3181 123.054L69.3231 123.232C69.3251 123.328 69.3281 123.423 69.3281 123.519L69.3381 123.908L69.3541 124.365L69.3591 124.515L69.3791 124.988V125.01L69.4071 125.563V125.577C69.4171 125.766 69.4271 125.955 69.4391 126.143C69.4491 126.318 69.4601 126.492 69.4721 126.666L69.4751 126.697C69.4839 126.846 69.4939 126.996 69.5051 127.145L69.5081 127.184C69.5181 127.328 69.5291 127.473 69.5411 127.616L69.5431 127.644L69.5631 127.894C69.623 128.615 69.693 129.336 69.7731 130.055L69.7781 130.1L69.8381 130.628L69.9071 131.184C69.9534 131.554 70.0028 131.923 70.0551 132.292C70.0863 132.515 70.1187 132.737 70.1521 132.959L70.1571 132.986C70.2318 133.488 70.3124 133.99 70.3991 134.49C70.6478 135.941 70.9399 137.385 71.2751 138.819L71.2801 138.842L71.3121 138.977C71.3421 139.105 71.3721 139.233 71.4041 139.362L71.4591 139.295C73.6591 136.665 76.8151 135.215 80.3461 135.215C83.1761 135.215 86.0801 136.15 88.9891 137.995C90.9191 139.221 93.0531 141.393 95.2491 144.124C97.2811 141.301 100.129 139.426 103.387 138.914C104.009 138.816 104.637 138.766 105.265 138.765C112.702 138.765 117.181 145.219 118.873 151.023C119.708 152.985 123.738 161.916 129.814 167.958C139.049 177.185 141.36 186.707 136.79 196.902H136.805C137.117 196.936 137.43 196.968 137.744 196.997C137.931 197.015 138.118 197.033 138.305 197.049L138.371 197.055C138.508 197.068 138.646 197.08 138.784 197.09L139.164 197.121C139.526 197.149 139.889 197.174 140.254 197.198L140.542 197.215L140.771 197.228L140.914 197.236L141.36 197.26L141.482 197.265L141.952 197.285L142.473 197.305L142.893 197.317L142.963 197.32C143.051 197.323 143.141 197.327 143.23 197.327L143.325 197.329C143.915 197.343 144.504 197.35 145.094 197.35H145.72L146.168 197.345C146.278 197.339 146.387 197.339 146.497 197.339H146.671L146.822 197.336C146.881 197.334 146.941 197.332 147 197.332H147.179L147.53 197.322L148.058 197.304L148.64 197.279C148.807 197.272 148.973 197.264 149.14 197.255L149.319 197.245L149.584 197.23L149.741 197.221L149.858 197.214L150.395 197.178C150.574 197.167 150.753 197.153 150.932 197.139L151.418 197.101L151.761 197.072L152.136 197.038C152.521 197.002 152.905 196.964 153.287 196.924C153.531 196.897 153.773 196.87 154.016 196.841L154.443 196.79C149.944 186.637 152.273 177.158 161.471 167.967C167.533 161.91 171.563 152.977 172.403 151.016C174.096 145.211 178.571 138.758 186.01 138.758C186.639 138.759 187.267 138.808 187.888 138.907C191.143 139.419 193.992 141.295 196.027 144.117C198.224 141.386 200.357 139.214 202.287 137.988C205.196 136.143 208.102 135.208 210.929 135.208C214.045 135.208 216.87 136.338 219.003 138.41C219.12 137.888 219.233 137.366 219.341 136.842C219.407 136.515 219.472 136.187 219.536 135.858C219.614 135.454 219.688 135.048 219.756 134.642C219.774 134.532 219.793 134.422 219.814 134.311C219.847 134.138 219.876 133.967 219.903 133.793L219.914 133.727L219.985 133.274L220.055 132.815L220.056 132.81C220.084 132.618 220.113 132.425 220.139 132.232C220.16 132.086 220.18 131.94 220.199 131.793L220.211 131.709L220.273 131.231L220.324 130.824C220.355 130.556 220.385 130.288 220.414 130.019C220.427 129.912 220.438 129.804 220.449 129.696L220.459 129.609C220.478 129.43 220.495 129.252 220.511 129.073L220.551 128.657C220.634 127.735 220.701 126.813 220.753 125.889V125.883L220.78 125.393L220.785 125.283L220.805 124.818C220.813 124.643 220.82 124.466 220.826 124.287V124.274L220.831 124.145C220.836 124.035 220.84 123.925 220.84 123.816L220.842 123.771C220.846 123.669 220.85 123.563 220.85 123.458L220.853 123.368C220.856 123.263 220.859 123.159 220.859 123.054L220.861 122.965C220.864 122.831 220.867 122.698 220.867 122.564V122.075ZM126.296 197.782C132.297 188.98 131.872 182.374 123.637 174.144C115.402 165.914 110.609 153.878 110.609 153.878C110.609 153.878 108.82 146.886 104.74 147.529C100.66 148.171 97.6671 158.618 106.209 165.013C114.751 171.408 104.51 175.744 101.222 169.743C97.9331 163.741 88.9571 148.314 84.3021 145.363C79.6481 142.412 76.3751 144.066 77.4721 150.148C78.0171 153.167 83.0851 158.319 87.8201 163.133C92.6241 168.018 97.0851 172.553 96.1321 174.158C94.2391 177.346 87.5721 170.413 87.5721 170.413C87.5721 170.413 66.6961 151.416 62.1511 156.367C57.9621 160.93 64.4221 164.809 74.3781 170.787C75.2251 171.296 76.0971 171.82 76.9901 172.36C88.3801 179.256 89.2661 181.075 87.6501 183.684C87.0531 184.648 83.2401 182.359 78.5501 179.543C70.5551 174.743 60.0121 168.414 58.5241 174.079C57.2351 178.982 64.9911 181.986 72.0251 184.711C77.8851 186.981 83.2451 189.057 82.4571 191.875C81.6401 194.796 77.2111 192.36 72.3691 189.696C66.9341 186.705 60.9791 183.428 59.0311 187.126C55.3471 194.116 84.4411 202.345 84.6801 202.405C94.0801 204.843 117.952 210.009 126.296 197.782ZM164.96 197.782C158.958 188.98 159.384 182.374 167.619 174.144C175.854 165.914 180.648 153.878 180.648 153.878C180.648 153.878 182.436 146.886 186.516 147.529C190.596 148.171 193.59 158.618 185.047 165.013C176.504 171.408 186.746 175.744 190.035 169.743C193.323 163.741 202.295 148.314 206.949 145.363C211.603 142.412 214.877 144.066 213.78 150.148C213.235 153.167 208.167 158.32 203.431 163.134C198.628 168.018 194.167 172.553 195.12 174.158C197.012 177.346 203.685 170.409 203.685 170.409C203.685 170.409 224.56 151.412 229.105 156.363C233.294 160.926 226.833 164.806 216.877 170.785C216.03 171.293 215.159 171.816 214.266 172.357C202.875 179.252 201.99 181.072 203.606 183.68C204.203 184.644 208.016 182.355 212.705 179.54C220.701 174.74 231.244 168.41 232.732 174.075C234.021 178.978 226.265 181.983 219.23 184.708C213.37 186.978 208.011 189.053 208.798 191.872C209.615 194.793 214.042 192.356 218.882 189.692C224.317 186.701 230.273 183.423 232.222 187.122C235.906 194.117 206.808 202.337 206.572 202.398C197.172 204.843 173.3 210.009 164.96 197.782Z" fill="#FFD21E"/>
<!-- Dark facial features (eyes, nose, mouth) -->
<path fill-rule="evenodd" clip-rule="evenodd" d="M169.705 100.957C170.886 101.375 171.765 102.648 172.601 103.858C173.731 105.495 174.783 107.017 176.397 106.159C178.302 105.147 179.863 103.593 180.884 101.693C181.905 99.7935 182.339 97.6337 182.132 95.487C181.978 93.8819 181.47 92.3308 180.644 90.9458C179.818 89.5607 178.695 88.3761 177.357 87.4772C176.018 86.5784 174.496 85.9878 172.902 85.7479C171.307 85.508 169.679 85.6249 168.135 86.09C166.07 86.7119 164.236 87.9318 162.864 89.5957C161.493 91.2595 160.645 93.2926 160.428 95.438C160.212 97.5839 160.637 99.7456 161.649 101.65C162.397 103.057 164.057 102.394 165.809 101.693C167.183 101.144 168.613 100.572 169.705 100.957ZM118.329 100.958C117.148 101.376 116.268 102.649 115.432 103.859C114.302 105.495 113.25 107.018 111.636 106.16C110.213 105.403 108.976 104.339 108.013 103.046C107.05 101.753 106.386 100.263 106.068 98.6822C105.75 97.1017 105.786 95.4705 106.174 93.9058C106.563 92.3411 107.293 90.8818 108.312 89.633C109.333 88.3849 110.617 87.3785 112.073 86.6862C113.529 85.9939 115.121 85.6331 116.733 85.6295C118.345 85.626 119.938 85.9799 121.397 86.6657C122.856 87.3516 124.145 88.3524 125.171 89.596C126.543 91.2598 127.391 93.2933 127.608 95.4392C127.824 97.5851 127.399 99.7469 126.386 101.651C125.636 103.058 123.976 102.394 122.224 101.693C120.851 101.144 119.421 100.572 118.329 100.958ZM161.757 147.709C169.9 141.293 172.891 130.82 172.891 124.368C172.891 119.268 169.459 120.873 163.966 123.592L163.657 123.746C158.614 126.243 151.902 129.567 144.534 129.567C137.165 129.567 130.453 126.242 125.412 123.745C119.741 120.936 116.184 119.174 116.184 124.369C116.184 131.024 119.366 141.953 128.101 148.303C129.253 145.963 130.875 143.886 132.867 142.202C134.858 140.518 137.176 139.264 139.675 138.517C140.547 138.257 141.445 139.758 142.365 141.294C143.252 142.777 144.158 144.293 145.081 144.293C146.063 144.293 147.029 142.799 147.972 141.34C148.957 139.816 149.917 138.33 150.846 138.627C155.522 140.128 159.433 143.383 161.757 147.709Z" fill="#3C3C43"/>
<!-- Red tongue -->
<path d="M161.754 147.708C157.513 151.05 151.876 153.291 144.536 153.291C137.639 153.291 132.244 151.313 128.101 148.302C129.254 145.963 130.877 143.886 132.868 142.203C134.859 140.519 137.177 139.264 139.675 138.516C141.388 138.005 143.202 144.292 145.08 144.292C147.091 144.292 149.028 138.045 150.846 138.626C155.52 140.128 159.43 143.383 161.754 147.708Z" fill="#FF323D"/>
<!-- Amber eye highlights / cheeks -->
<path fill-rule="evenodd" clip-rule="evenodd" d="M98.8581 110.031C98.0843 110.552 97.2153 110.915 96.301 111.099C95.3866 111.283 94.4449 111.285 93.5298 111.105C92.6147 110.924 91.7442 110.565 90.9682 110.048C90.1922 109.53 89.526 108.865 89.0077 108.089C88.4894 107.314 88.1293 106.443 87.948 105.529C87.7667 104.614 87.7677 103.672 87.951 102.757C88.1343 101.843 88.4964 100.974 89.0163 100.199C89.5363 99.4248 90.204 98.7607 90.9811 98.2449C92.5441 97.2076 94.4546 96.8321 96.2939 97.2008C98.1332 97.5695 99.7514 98.6523 100.794 100.212C101.836 101.772 102.218 103.681 101.855 105.521C101.492 107.362 100.414 108.984 98.8581 110.031ZM200.27 110.031C199.496 110.552 198.627 110.915 197.713 111.099C196.799 111.283 195.857 111.285 194.942 111.105C194.027 110.924 193.156 110.565 192.38 110.048C191.604 109.53 190.938 108.865 190.42 108.089C189.901 107.314 189.541 106.443 189.36 105.529C189.179 104.614 189.18 103.672 189.363 102.757C189.546 101.843 189.908 100.974 190.428 100.199C190.948 99.4248 191.616 98.7607 192.393 98.2449C193.956 97.2076 195.867 96.8321 197.706 97.2008C199.545 97.5695 201.163 98.6523 202.206 100.212C203.248 101.772 203.63 103.681 203.267 105.521C202.904 107.362 201.826 108.984 200.27 110.031Z" fill="#FFAD03"/>
<!-- MASK: dome covering upper half of face (eyes and above) -->
<path d="M62 115 A83 83 0 0 1 228 115 Z" fill="#3C3C43"/>
<!-- Left eye hole in mask -->
<ellipse cx="117" cy="98" rx="20" ry="13" fill="#FFD21E"/>
<!-- Right eye hole in mask -->
<ellipse cx="175" cy="98" rx="20" ry="13" fill="#FFD21E"/>
<!-- Left happy arc eye -->
<path d="M105 101 Q117 87 129 101" stroke="#3C3C43" stroke-width="4.5" stroke-linecap="round" fill="none"/>
<!-- Right happy arc eye -->
<path d="M163 101 Q175 87 187 101" stroke="#3C3C43" stroke-width="4.5" stroke-linecap="round" fill="none"/>
</svg>
